<?xml version="1.0" encoding="UTF-8"?>
<svg width="239px" height="27px" viewBox="0 0 239 27" version="1.1" xmlns="http://www.w3.org/2000/svg" xmlns:xlink="http://www.w3.org/1999/xlink">
    <title>MadalinaLoghin</title>
    <g id="Page-1" stroke="none" stroke-width="1" fill="none" fill-rule="evenodd">
        <g id="Artboard" transform="translate(-32.000000, -88.000000)" fill="#000000" fill-rule="nonzero">
            <path d="M53.388,114.256 L53.388,113.956 C52.756,113.924 52.196,113.768 51.708,113.488 C50.596,112.752 49.22,110.724 47.58,107.404 L47.58,107.404 L47.244,106.744 L53.1,93.868 L53.1,106.912 C53.1,107.376 52.974,107.738 52.722,107.998 C52.47,108.258 52.176,108.44 51.84,108.544 C51.504,108.648 51.208,108.7 50.952,108.7 L50.952,108.7 L50.952,109 L57.408,109 L57.408,108.7 C57.16,108.7 56.866,108.648 56.526,108.544 C56.186,108.44 55.89,108.258 55.638,107.998 C55.386,107.738 55.26,107.376 55.26,106.912 L55.26,106.912 L55.26,94.528 C55.26,94.064 55.386,93.702 55.638,93.442 C55.89,93.182 56.186,93 56.526,92.896 C56.866,92.792 57.16,92.74 57.408,92.74 L57.408,92.74 L57.408,92.44 L53.088,92.44 L46.884,106.024 L41.136,94.528 C40.184,92.592 38.968,91.192 37.488,90.328 C36.008,89.464 34.32,89 32.424,88.936 L32.424,88.936 L32.424,89.236 C34.744,89.636 36.688,91.12 38.256,93.688 L38.256,93.688 L38.256,106 C38.256,107.056 37.992,107.8 37.464,108.232 C37.088,108.544 36.636,108.7 36.108,108.7 L36.108,108.7 L36.108,109 L41.004,109 L41.004,108.7 C40.476,108.7 40.024,108.544 39.648,108.232 C39.12,107.8 38.856,107.056 38.856,106 L38.856,106 L38.856,94.792 L45.444,107.992 C46.204,109.68 47.076,111.048 48.06,112.096 C49.404,113.536 51.18,114.256 53.388,114.256 L53.388,114.256 Z M63.4554856,109 L63.4674856,108.7 C63.2754856,108.7 63.0734856,108.672 62.8614856,108.616 C62.6494856,108.56 62.4974856,108.442 62.4054856,108.262 C62.3134856,108.082 62.2674856,107.888 62.2674856,107.68 C62.2674856,107.504 62.2914856,107.296 62.3394856,107.056 C62.4274856,106.544 62.6754856,105.836 63.0834856,104.932 L63.0834856,104.932 L63.2754856,104.512 L70.9434856,104.512 L71.8794856,106.912 C71.9754856,107.168 72.0234856,107.392 72.0234856,107.584 C72.0234856,107.744 71.9914856,107.88 71.9274856,107.992 C71.7994856,108.256 71.5934856,108.44 71.3094856,108.544 C71.0254856,108.648 70.7554856,108.7 70.4994856,108.7 L70.4994856,108.7 L70.4994856,109 L76.9074856,109 L76.9074856,108.7 C76.6594856,108.7 76.3594856,108.65 76.0074856,108.55 C75.6554856,108.45 75.3194856,108.268 74.9994856,108.004 C74.6794856,107.74 74.4234856,107.376 74.2314856,106.912 L74.2314856,106.912 L68.4234856,92.08 L62.4234856,104.932 C61.9994856,105.828 61.6054856,106.534 61.2414856,107.05 C60.8774856,107.566 60.5434856,107.942 60.2394856,108.178 C59.9354856,108.414 59.6594856,108.56 59.4114856,108.616 C59.1634856,108.672 58.9434856,108.7 58.7514856,108.7 L58.7514856,108.7 L58.7394856,109 L63.4554856,109 Z M70.7394856,103.972 L63.5274856,103.972 L67.4514856,95.584 L70.7394856,103.972 Z M84.6949712,109 C86.4949712,109 88.0849712,108.668 89.4649712,108.004 C90.8449712,107.34 91.9229712,106.388 92.6989712,105.148 C93.4749712,103.908 93.8629712,102.432 93.8629712,100.72 C93.8629712,99 93.4749712,97.522 92.6989712,96.286 C91.9229712,95.05 90.8449712,94.1 89.4649712,93.436 C88.0849712,92.772 86.4909712,92.44 84.6829712,92.44 L84.6829712,92.44 L78.2269712,92.44 L78.2269712,92.74 C78.4829712,92.74 78.7789712,92.792 79.1149712,92.896 C79.4509712,93 79.7449712,93.182 79.9969712,93.442 C80.2489712,93.702 80.3749712,94.064 80.3749712,94.528 L80.3749712,94.528 L80.3749712,106.912 C80.3749712,107.376 80.2489712,107.738 79.9969712,107.998 C79.7449712,108.258 79.4509712,108.44 79.1149712,108.544 C78.7789712,108.648 78.4829712,108.7 78.2269712,108.7 L78.2269712,108.7 L78.2269712,109 L84.6949712,109 Z M84.6949712,108.46 L82.5349712,108.46 L82.5349712,92.98 L84.6949712,92.98 C86.0709712,92.98 87.2709712,93.31 88.2949712,93.97 C89.3189712,94.63 90.1169712,95.542 90.6889712,96.706 C91.2609712,97.87 91.5469712,99.208 91.5469712,100.72 C91.5469712,102.232 91.2609712,103.57 90.6889712,104.734 C90.1169712,105.898 89.3189712,106.81 88.2949712,107.47 C87.2709712,108.13 86.0709712,108.46 84.6949712,108.46 L84.6949712,108.46 Z M97.8584568,109 L97.8704568,108.7 C97.6784568,108.7 97.4764568,108.672 97.2644568,108.616 C97.0524568,108.56 96.9004568,108.442 96.8084568,108.262 C96.7164568,108.082 96.6704568,107.888 96.6704568,107.68 C96.6704568,107.504 96.6944568,107.296 96.7424568,107.056 C96.8304568,106.544 97.0784568,105.836 97.4864568,104.932 L97.4864568,104.932 L97.6784568,104.512 L105.346457,104.512 L106.282457,106.912 C106.378457,107.168 106.426457,107.392 106.426457,107.584 C106.426457,107.744 106.394457,107.88 106.330457,107.992 C106.202457,108.256 105.996457,108.44 105.712457,108.544 C105.428457,108.648 105.158457,108.7 104.902457,108.7 L104.902457,108.7 L104.902457,109 L111.310457,109 L111.310457,108.7 C111.062457,108.7 110.762457,108.65 110.410457,108.55 C110.058457,108.45 109.722457,108.268 109.402457,108.004 C109.082457,107.74 108.826457,107.376 108.634457,106.912 L108.634457,106.912 L102.826457,92.08 L96.8264568,104.932 C96.4024568,105.828 96.0084568,106.534 95.6444568,107.05 C95.2804568,107.566 94.9464568,107.942 94.6424568,108.178 C94.3384568,108.414 94.0624568,108.56 93.8144568,108.616 C93.5664568,108.672 93.3464568,108.7 93.1544568,108.7 L93.1544568,108.7 L93.1424568,109 L97.8584568,109 Z M105.142457,103.972 L97.9304568,103.972 L101.854457,95.584 L105.142457,103.972 Z M124.461942,109 L125.289942,105.124 L124.989942,105.124 C124.845942,105.492 124.665942,105.868 124.449942,106.252 C123.649942,107.724 122.325942,108.46 120.477942,108.46 L120.477942,108.46 L116.937942,108.46 L116.937942,94.528 C116.937942,94.064 117.063942,93.702 117.315942,93.442 C117.567942,93.182 117.863942,93 118.203942,92.896 C118.543942,92.792 118.837942,92.74 119.085942,92.74 L119.085942,92.74 L119.085942,92.44 L112.629942,92.44 L112.629942,92.74 C112.885942,92.74 113.181942,92.792 113.517942,92.896 C113.853942,93 114.147942,93.182 114.399942,93.442 C114.651942,93.702 114.777942,94.064 114.777942,94.528 L114.777942,94.528 L114.777942,106.912 C114.777942,107.376 114.651942,107.738 114.399942,107.998 C114.147942,108.258 113.853942,108.44 113.517942,108.544 C113.181942,108.648 112.885942,108.7 112.629942,108.7 L112.629942,108.7 L112.629942,109 L124.461942,109 Z M132.345428,109 L132.345428,108.7 C132.097428,108.7 131.803428,108.648 131.463428,108.544 C131.123428,108.44 130.827428,108.258 130.575428,107.998 C130.323428,107.738 130.197428,107.376 130.197428,106.912 L130.197428,106.912 L130.197428,94.528 C130.197428,94.064 130.323428,93.702 130.575428,93.442 C130.827428,93.182 131.123428,93 131.463428,92.896 C131.803428,92.792 132.097428,92.74 132.345428,92.74 L132.345428,92.74 L132.345428,92.44 L125.889428,92.44 L125.889428,92.74 C126.145428,92.74 126.441428,92.792 126.777428,92.896 C127.113428,93 127.407428,93.182 127.659428,93.442 C127.911428,93.702 128.037428,94.064 128.037428,94.528 L128.037428,94.528 L128.037428,106.912 C128.037428,107.376 127.911428,107.738 127.659428,107.998 C127.407428,108.258 127.113428,108.44 126.777428,108.544 C126.441428,108.648 126.145428,108.7 125.889428,108.7 L125.889428,108.7 L125.889428,109 L132.345428,109 Z M148.016914,109.36 L148.016914,95.44 C148.016914,94.384 148.280914,93.64 148.808914,93.208 C149.184914,92.896 149.636914,92.74 150.164914,92.74 L150.164914,92.74 L150.164914,92.44 L145.268914,92.44 L145.268914,92.74 C145.796914,92.74 146.248914,92.896 146.624914,93.208 C147.152914,93.64 147.416914,94.384 147.416914,95.44 L147.416914,95.44 L147.416914,105.904 L136.412914,92.08 L135.812914,92.08 L135.812914,106 C135.812914,107.056 135.548914,107.8 135.020914,108.232 C134.644914,108.544 134.192914,108.7 133.664914,108.7 L133.664914,108.7 L133.664914,109 L138.560914,109 L138.560914,108.7 C138.032914,108.7 137.580914,108.544 137.204914,108.232 C136.676914,107.8 136.412914,107.056 136.412914,106 L136.412914,106 L136.412914,95.56 L147.416914,109.36 L148.016914,109.36 Z M154.880399,109 L154.892399,108.7 C154.700399,108.7 154.498399,108.672 154.286399,108.616 C154.074399,108.56 153.922399,108.442 153.830399,108.262 C153.738399,108.082 153.692399,107.888 153.692399,107.68 C153.692399,107.504 153.716399,107.296 153.764399,107.056 C153.852399,106.544 154.100399,105.836 154.508399,104.932 L154.508399,104.932 L154.700399,104.512 L162.368399,104.512 L163.304399,106.912 C163.400399,107.168 163.448399,107.392 163.448399,107.584 C163.448399,107.744 163.416399,107.88 163.352399,107.992 C163.224399,108.256 163.018399,108.44 162.734399,108.544 C162.450399,108.648 162.180399,108.7 161.924399,108.7 L161.924399,108.7 L161.924399,109 L168.332399,109 L168.332399,108.7 C168.084399,108.7 167.784399,108.65 167.432399,108.55 C167.080399,108.45 166.744399,108.268 166.424399,108.004 C166.104399,107.74 165.848399,107.376 165.656399,106.912 L165.656399,106.912 L159.848399,92.08 L153.848399,104.932 C153.424399,105.828 153.030399,106.534 152.666399,107.05 C152.302399,107.566 151.968399,107.942 151.664399,108.178 C151.360399,108.414 151.084399,108.56 150.836399,108.616 C150.588399,108.672 150.368399,108.7 150.176399,108.7 L150.176399,108.7 L150.164399,109 L154.880399,109 Z M162.164399,103.972 L154.952399,103.972 L158.876399,95.584 L162.164399,103.972 Z M186.97937,111.712 C188.43537,111.712 189.83137,111.116 191.16737,109.924 L191.16737,109.924 L191.25137,109.84 L191.11937,109.564 C190.55137,109.844 190.06737,110.044 189.66737,110.164 C189.21937,110.292 188.74337,110.356 188.23937,110.356 C187.43937,110.356 186.67337,110.246 185.94137,110.026 C185.20937,109.806 184.47937,109.552 183.75137,109.264 C182.99137,108.96 182.20337,108.692 181.38737,108.46 L181.38737,108.46 L181.38737,94.528 C181.38737,94.064 181.51337,93.702 181.76537,93.442 C182.01737,93.182 182.31337,93 182.65337,92.896 C182.99337,92.792 183.28737,92.74 183.53537,92.74 L183.53537,92.74 L183.53537,92.44 L177.07937,92.44 L177.07937,92.74 C177.33537,92.74 177.63137,92.792 177.96737,92.896 C178.30337,93 178.59737,93.182 178.84937,93.442 C179.10137,93.702 179.22737,94.064 179.22737,94.528 L179.22737,94.528 L179.22737,106.912 C179.22737,107.376 179.10137,107.738 178.84937,107.998 C178.59737,108.258 178.30337,108.44 177.96737,108.544 C177.63137,108.648 177.33537,108.7 177.07937,108.7 L177.07937,108.7 L177.07937,109 C177.42337,108.944 177.76737,108.916 178.11137,108.916 C179.15937,108.916 180.21537,109.152 181.27937,109.624 C181.76737,109.848 182.25137,110.088 182.73137,110.344 C183.17937,110.576 183.63137,110.796 184.08737,111.004 C185.11937,111.476 186.08337,111.712 186.97937,111.712 Z M196.734856,109.312 C198.534856,109.312 200.124856,108.954 201.504856,108.238 C202.884856,107.522 203.962856,106.518 204.738856,105.226 C205.514856,103.934 205.902856,102.432 205.902856,100.72 C205.902856,99 205.514856,97.496 204.738856,96.208 C203.962856,94.92 202.884856,93.916 201.504856,93.196 C200.124856,92.476 198.534856,92.116 196.734856,92.116 C194.934856,92.116 193.348856,92.476 191.976856,93.196 C190.604856,93.916 189.530856,94.92 188.754856,96.208 C187.978856,97.496 187.590856,99 187.590856,100.72 C187.590856,102.432 187.978856,103.934 188.754856,105.226 C189.530856,106.518 190.604856,107.522 191.976856,108.238 C193.348856,108.954 194.934856,109.312 196.734856,109.312 Z M196.734856,108.772 C195.366856,108.772 194.168856,108.416 193.140856,107.704 C192.112856,106.992 191.312856,106.028 190.740856,104.812 C190.168856,103.596 189.882856,102.232 189.882856,100.72 C189.882856,99.208 190.168856,97.842 190.740856,96.622 C191.312856,95.402 192.112856,94.436 193.140856,93.724 C194.168856,93.012 195.366856,92.656 196.734856,92.656 C198.110856,92.656 199.310856,93.012 200.334856,93.724 C201.358856,94.436 202.156856,95.402 202.728856,96.622 C203.300856,97.842 203.586856,99.208 203.586856,100.72 C203.586856,102.232 203.300856,103.596 202.728856,104.812 C202.156856,106.028 201.358856,106.992 200.334856,107.704 C199.310856,108.416 198.110856,108.772 196.734856,108.772 Z M217.326342,109.312 C219.374342,109.312 221.070342,108.76 222.414342,107.656 L222.414342,107.656 L224.046342,109 L224.346342,109 L224.346342,102.304 C224.346342,101.84 224.472342,101.478 224.724342,101.218 C224.976342,100.958 225.272342,100.776 225.612342,100.672 C225.952342,100.568 226.246342,100.516 226.494342,100.516 L226.494342,100.516 L226.494342,100.216 L220.038342,100.216 L220.038342,100.516 C220.294342,100.516 220.590342,100.568 220.926342,100.672 C221.262342,100.776 221.556342,100.958 221.808342,101.218 C222.060342,101.478 222.186342,101.84 222.186342,102.304 L222.186342,102.304 L222.186342,105.616 C222.186342,106.216 221.970342,106.744 221.538342,107.2 C220.930342,107.728 220.266342,108.122 219.546342,108.382 C218.826342,108.642 218.094342,108.772 217.350342,108.772 C216.230342,108.772 215.242342,108.546 214.386342,108.094 C213.530342,107.642 212.812342,107.036 212.232342,106.276 C211.652342,105.516 211.214342,104.654 210.918342,103.69 C210.622342,102.726 210.474342,101.736 210.474342,100.72 C210.474342,99.76 210.618342,98.804 210.906342,97.852 C211.194342,96.9 211.618342,96.034 212.178342,95.254 C212.738342,94.474 213.430342,93.848 214.254342,93.376 C215.078342,92.904 216.026342,92.668 217.098342,92.668 C217.866342,92.668 218.626342,92.83 219.378342,93.154 C220.130342,93.478 220.838342,93.982 221.502342,94.666 C222.166342,95.35 222.750342,96.228 223.254342,97.3 L223.254342,97.3 L223.554342,97.3 L222.582342,92.44 L222.282342,92.44 L222.282342,92.524 C222.282342,92.644 222.258342,92.76 222.210342,92.872 C222.154342,93.024 222.038342,93.1 221.862342,93.1 C221.734342,93.1 221.590342,93.074 221.430342,93.022 C221.270342,92.97 221.086342,92.904 220.878342,92.824 L220.678342,92.7476667 C220.331675,92.6198889 219.918342,92.4893333 219.438342,92.356 C218.862342,92.196 218.158342,92.116 217.326342,92.116 C215.526342,92.116 213.940342,92.476 212.568342,93.196 C211.196342,93.916 210.122342,94.92 209.346342,96.208 C208.570342,97.496 208.182342,99 208.182342,100.72 C208.182342,102.432 208.570342,103.934 209.346342,105.226 C210.122342,106.518 211.196342,107.522 212.568342,108.238 C213.940342,108.954 215.526342,109.312 217.326342,109.312 Z M234.269827,109 L234.269827,108.7 C234.021827,108.7 233.727827,108.648 233.387827,108.544 C233.047827,108.44 232.751827,108.258 232.499827,107.998 C232.247827,107.738 232.121827,107.376 232.121827,106.912 L232.121827,106.912 L232.121827,101.08 L240.965827,101.08 L240.965827,106.912 C240.965827,107.376 240.839827,107.738 240.587827,107.998 C240.335827,108.258 240.041827,108.44 239.705827,108.544 C239.369827,108.648 239.073827,108.7 238.817827,108.7 L238.817827,108.7 L238.817827,109 L245.273827,109 L245.273827,108.7 C245.025827,108.7 244.731827,108.648 244.391827,108.544 C244.051827,108.44 243.755827,108.258 243.503827,107.998 C243.251827,107.738 243.125827,107.376 243.125827,106.912 L243.125827,106.912 L243.125827,94.528 C243.125827,94.064 243.251827,93.702 243.503827,93.442 C243.755827,93.182 244.051827,93 244.391827,92.896 C244.731827,92.792 245.025827,92.74 245.273827,92.74 L245.273827,92.74 L245.273827,92.44 L238.817827,92.44 L238.817827,92.74 C239.073827,92.74 239.369827,92.792 239.705827,92.896 C240.041827,93 240.335827,93.182 240.587827,93.442 C240.839827,93.702 240.965827,94.064 240.965827,94.528 L240.965827,94.528 L240.965827,100.54 L232.121827,100.54 L232.121827,94.528 C232.121827,94.064 232.247827,93.702 232.499827,93.442 C232.751827,93.182 233.047827,93 233.387827,92.896 C233.727827,92.792 234.021827,92.74 234.269827,92.74 L234.269827,92.74 L234.269827,92.44 L227.813827,92.44 L227.813827,92.74 C228.069827,92.74 228.365827,92.792 228.701827,92.896 C229.037827,93 229.331827,93.182 229.583827,93.442 C229.835827,93.702 229.961827,94.064 229.961827,94.528 L229.961827,94.528 L229.961827,106.912 C229.961827,107.376 229.835827,107.738 229.583827,107.998 C229.331827,108.258 229.037827,108.44 228.701827,108.544 C228.365827,108.648 228.069827,108.7 227.813827,108.7 L227.813827,108.7 L227.813827,109 L234.269827,109 Z M253.169313,109 L253.169313,108.7 C252.921313,108.7 252.627313,108.648 252.287313,108.544 C251.947313,108.44 251.651313,108.258 251.399313,107.998 C251.147313,107.738 251.021313,107.376 251.021313,106.912 L251.021313,106.912 L251.021313,94.528 C251.021313,94.064 251.147313,93.702 251.399313,93.442 C251.651313,93.182 251.947313,93 252.287313,92.896 C252.627313,92.792 252.921313,92.74 253.169313,92.74 L253.169313,92.74 L253.169313,92.44 L246.713313,92.44 L246.713313,92.74 C246.969313,92.74 247.265313,92.792 247.601313,92.896 C247.937313,93 248.231313,93.182 248.483313,93.442 C248.735313,93.702 248.861313,94.064 248.861313,94.528 L248.861313,94.528 L248.861313,106.912 C248.861313,107.376 248.735313,107.738 248.483313,107.998 C248.231313,108.258 247.937313,108.44 247.601313,108.544 C247.265313,108.648 246.969313,108.7 246.713313,108.7 L246.713313,108.7 L246.713313,109 L253.169313,109 Z M268.840798,109.36 L268.840798,95.44 C268.840798,94.384 269.104798,93.64 269.632798,93.208 C270.008798,92.896 270.460798,92.74 270.988798,92.74 L270.988798,92.74 L270.988798,92.44 L266.092798,92.44 L266.092798,92.74 C266.620798,92.74 267.072798,92.896 267.448798,93.208 C267.976798,93.64 268.240798,94.384 268.240798,95.44 L268.240798,95.44 L268.240798,105.904 L257.236798,92.08 L256.636798,92.08 L256.636798,106 C256.636798,107.056 256.372798,107.8 255.844798,108.232 C255.468798,108.544 255.016798,108.7 254.488798,108.7 L254.488798,108.7 L254.488798,109 L259.384798,109 L259.384798,108.7 C258.856798,108.7 258.404798,108.544 258.028798,108.232 C257.500798,107.8 257.236798,107.056 257.236798,106 L257.236798,106 L257.236798,95.56 L268.240798,109.36 L268.840798,109.36 Z" id="MadalinaLoghin"></path>
        </g>
    </g>
</svg>